<?xml version="1.0" encoding="UTF-8" standalone="no"?>
<svg
   xmlns:dc="http://purl.org/dc/elements/1.1/"
   xmlns:cc="http://creativecommons.org/ns#"
   xmlns:rdf="http://www.w3.org/1999/02/22-rdf-syntax-ns#"
   xmlns:svg="http://www.w3.org/2000/svg"
   xmlns="http://www.w3.org/2000/svg"
   xmlns:sodipodi="http://sodipodi.sourceforge.net/DTD/sodipodi-0.dtd"
   xmlns:inkscape="http://www.inkscape.org/namespaces/inkscape"
   viewBox="0 0 36 36"
   version="1.1"
   id="svg14"
   sodipodi:docname="asking_for_money_face.svg"
   inkscape:version="1.0 (4035a4fb49, 2020-05-01)">
  <title
     id="title12">:asking_for_money_face:</title>
  <metadata
     id="metadata20">
    <rdf:RDF>
      <cc:Work
         rdf:about="">
        <dc:format>image/svg+xml</dc:format>
        <dc:type
           rdf:resource="http://purl.org/dc/dcmitype/StillImage" />
        <dc:title>:asking_for_money_face:</dc:title>
        <cc:license
           rdf:resource="http://creativecommons.org/licenses/by/4.0/" />
        <dc:creator>
          <cc:Agent>
            <dc:title>らりお (@lo48576@mastodon.cardina1.red)</dc:title>
          </cc:Agent>
        </dc:creator>
        <dc:description>Based on glyphs for U+1F914 and U+1F44C by Twemoji.</dc:description>
        <dc:date>2020-05-09</dc:date>
        <dc:contributor>
          <cc:Agent>
            <dc:title>Twitter, Inc and other contributors</dc:title>
          </cc:Agent>
        </dc:contributor>
      </cc:Work>
      <cc:License
         rdf:about="http://creativecommons.org/licenses/by/4.0/">
        <cc:permits
           rdf:resource="http://creativecommons.org/ns#Reproduction" />
        <cc:permits
           rdf:resource="http://creativecommons.org/ns#Distribution" />
        <cc:requires
           rdf:resource="http://creativecommons.org/ns#Notice" />
        <cc:requires
           rdf:resource="http://creativecommons.org/ns#Attribution" />
        <cc:permits
           rdf:resource="http://creativecommons.org/ns#DerivativeWorks" />
      </cc:License>
    </rdf:RDF>
  </metadata>
  <defs
     id="defs18" />
  <sodipodi:namedview
     inkscape:snap-page="true"
     inkscape:snap-bbox-edge-midpoints="true"
     inkscape:bbox-paths="true"
     inkscape:bbox-nodes="true"
     inkscape:snap-bbox="true"
     inkscape:document-rotation="0"
     pagecolor="#ffffff"
     bordercolor="#666666"
     borderopacity="1"
     objecttolerance="10"
     gridtolerance="10"
     guidetolerance="10"
     inkscape:pageopacity="0"
     inkscape:pageshadow="2"
     inkscape:window-width="1916"
     inkscape:window-height="680"
     id="namedview16"
     showgrid="false"
     inkscape:zoom="28"
     inkscape:cx="-6.8571428"
     inkscape:cy="18"
     inkscape:window-x="1920"
     inkscape:window-y="768"
     inkscape:window-maximized="0"
     inkscape:current-layer="svg14" />
  <circle
     fill="#FFCB4C"
     cx="18"
     cy="17.018"
     r="17"
     id="circle2" />
  <path
     fill="#65471B"
     d="M14.524 21.036c-.145-.116-.258-.274-.312-.464-.134-.46.13-.918.59-1.021 4.528-1.021 7.577 1.363 7.706 1.465.384.306.459.845.173 1.205-.286.358-.828.401-1.211.097-.11-.084-2.523-1.923-6.182-1.098-.274.061-.554-.016-.764-.184z"
     id="path4" />
  <ellipse
     fill="#65471B"
     cx="13.119"
     cy="11.174"
     rx="2.125"
     ry="2.656"
     id="ellipse6" />
  <ellipse
     fill="#65471B"
     cx="24.375"
     cy="12.236"
     rx="2.125"
     ry="2.656"
     id="ellipse8" />
  <path
     fill="#65471B"
     d="M9.296 6.351c-.164-.088-.303-.224-.391-.399-.216-.428-.04-.927.393-1.112 4.266-1.831 7.699-.043 7.843.034.433.231.608.747.391 1.154-.216.405-.74.546-1.173.318-.123-.063-2.832-1.432-6.278.047-.257.109-.547.085-.785-.042zm12.135 3.75c-.156-.098-.286-.243-.362-.424-.187-.442.023-.927.468-1.084 4.381-1.536 7.685.48 7.823.567.415.26.555.787.312 1.178-.242.39-.776.495-1.191.238-.12-.072-2.727-1.621-6.267-.379-.266.091-.553.046-.783-.096z"
     id="path12" />
  <g
     transform="matrix(0,0.64692105,-0.64692105,0,23.255731,15.530289)"
     id="g839">
    <path
       style="fill:#b76e1b;fill-opacity:1"
       id="path2"
       d="m 23.216,20.937 -1.721,-6.86 -3.947,-8.816 c -0.502,-1.297 0.143,-2.756 1.44,-3.257 1.296,-0.506 2.756,0.143 3.258,1.44 l 6.203,15.769 z"
       fill="#E0AA94" />
    <path
       style="fill:#f19020;fill-opacity:1"
       id="path4-3"
       d="M 31.565,18.449 C 31.077,15.868 29.577,11.926 29.577,11.926 L 23.79,1.437 C 23.164,0.195 21.648,-0.303 20.407,0.322 19.165,0.948 18.665,2.463 19.292,3.705 l 5.33,9.547 c 0.013,0.022 1.413,5.491 1.413,5.491 -1.078,-0.995 -2.607,-2.359 -4.015,-3.618 -3.098,-2.772 -4.936,-3.811 -4.936,-3.811 -0.71,-0.443 -1.179,-0.506 -2.132,-0.059 L 9.08,13.823 c -0.157,0.078 -0.29,0.188 -0.395,0.329 l -2.313,3.086 c -0.893,1.067 -0.752,2.655 0.315,3.547 1.066,0.893 2.653,0.75 3.548,-0.314 0.048,-0.058 1.78,-2.56 1.936,-2.64 1.037,-0.533 2.965,-1.447 3.808,-1.42 0.897,0.029 6.281,5.957 6.281,5.957 0.206,0.259 0.23,0.618 0.06,0.902 l -2.915,5.228 c -0.079,0.131 -0.193,0.236 -0.33,0.303 l -2.674,1.5 c -0.154,0.075 -0.328,0.099 -0.496,0.067 l -5.27,-2.272 C 10.373,27.983 10.155,27.776 10.043,27.513 9.256,25.663 9.145,23.894 9.144,23.874 9.079,22.484 7.9,21.411 6.51,21.476 c -1.387,0.056 -2.463,1.243 -2.398,2.633 0.013,0.263 0.351,5.64 4.727,9.292 2.528,2.108 5.654,2.924 9.649,2.387 4.612,-0.619 7.469,-1.233 11.506,-9.558 1.117,-2.305 1.903,-6.024 1.571,-7.781 z"
       fill="#F7DECE" />
  </g>
</svg>
