<?xml version="1.0" encoding="UTF-8" standalone="no"?>
<svg
   xmlns:dc="http://purl.org/dc/elements/1.1/"
   xmlns:cc="http://creativecommons.org/ns#"
   xmlns:rdf="http://www.w3.org/1999/02/22-rdf-syntax-ns#"
   xmlns:svg="http://www.w3.org/2000/svg"
   xmlns="http://www.w3.org/2000/svg"
   xmlns:sodipodi="http://sodipodi.sourceforge.net/DTD/sodipodi-0.dtd"
   xmlns:inkscape="http://www.inkscape.org/namespaces/inkscape"
   inkscape:version="1.0 (4035a4fb49, 2020-05-01)"
   sodipodi:docname="drinking_face2.svg"
   id="svg14"
   version="1.1"
   viewBox="0 0 36 36">
  <title
     id="title12">:drinking_face2:</title>
  <metadata
     id="metadata20">
    <rdf:RDF>
      <cc:Work
         rdf:about="">
        <dc:format>image/svg+xml</dc:format>
        <dc:type
           rdf:resource="http://purl.org/dc/dcmitype/StillImage" />
        <dc:title>:drinking_face2:</dc:title>
        <cc:license
           rdf:resource="http://creativecommons.org/licenses/by/4.0/" />
        <dc:creator>
          <cc:Agent>
            <dc:title>らりお (@lo48576@mastodon.cardina1.red)</dc:title>
          </cc:Agent>
        </dc:creator>
        <dc:description>Based on glyphs for U+1F914 and U+1F37A by Twemoji.</dc:description>
        <dc:contributor>
          <cc:Agent>
            <dc:title>Twitter, Inc and other contributors</dc:title>
          </cc:Agent>
        </dc:contributor>
        <dc:date>2020-05-28</dc:date>
      </cc:Work>
      <cc:License
         rdf:about="http://creativecommons.org/licenses/by/4.0/">
        <cc:permits
           rdf:resource="http://creativecommons.org/ns#Reproduction" />
        <cc:permits
           rdf:resource="http://creativecommons.org/ns#Distribution" />
        <cc:requires
           rdf:resource="http://creativecommons.org/ns#Notice" />
        <cc:requires
           rdf:resource="http://creativecommons.org/ns#Attribution" />
        <cc:permits
           rdf:resource="http://creativecommons.org/ns#DerivativeWorks" />
      </cc:License>
    </rdf:RDF>
  </metadata>
  <defs
     id="defs18" />
  <sodipodi:namedview
     inkscape:current-layer="svg14"
     inkscape:window-maximized="1"
     inkscape:window-y="57"
     inkscape:window-x="1920"
     inkscape:cy="108.35807"
     inkscape:cx="24.334992"
     inkscape:zoom="2.4748738"
     showgrid="false"
     id="namedview16"
     inkscape:window-height="2101"
     inkscape:window-width="1916"
     inkscape:pageshadow="2"
     inkscape:pageopacity="0"
     guidetolerance="10"
     gridtolerance="10"
     objecttolerance="10"
     borderopacity="1"
     bordercolor="#666666"
     pagecolor="#ffffff"
     inkscape:document-rotation="0"
     inkscape:snap-bbox="true"
     inkscape:bbox-nodes="true"
     inkscape:snap-bbox-edge-midpoints="true"
     inkscape:snap-page="true" />
  <circle
     style="fill:#f0c5fe;fill-opacity:1"
     id="circle2"
     r="17"
     cy="17.018"
     cx="18"
     fill="#FFCB4C" />
  <path
     id="path4"
     d="m 21.754418,18.818071 c 0.183574,0.02796 0.360437,0.10829 0.5022,0.245835 0.346048,0.331372 0.346418,0.860011 -4.55e-4,1.179212 -3.410863,3.148212 -7.243375,2.608107 -7.406092,2.584275 -0.485552,-0.073 -0.820006,-0.502293 -0.752322,-0.957062 0.06868,-0.453038 0.51657,-0.761277 1.000257,-0.689505 0.137262,0.01775 3.146482,0.403867 5.902769,-2.140102 0.206791,-0.18983 0.487778,-0.263146 0.753643,-0.222654 z"
     fill="#65471b" />
  <ellipse
     id="ellipse6"
     ry="2.656"
     rx="2.125"
     cy="11.174"
     cx="13.119"
     fill="#65471B" />
  <ellipse
     id="ellipse8"
     ry="2.656"
     rx="2.125"
     cy="12.236"
     cx="24.375"
     fill="#65471B" />
  <path
     id="path12"
     d="M9.296 6.351c-.164-.088-.303-.224-.391-.399-.216-.428-.04-.927.393-1.112 4.266-1.831 7.699-.043 7.843.034.433.231.608.747.391 1.154-.216.405-.74.546-1.173.318-.123-.063-2.832-1.432-6.278.047-.257.109-.547.085-.785-.042zm12.135 3.75c-.156-.098-.286-.243-.362-.424-.187-.442.023-.927.468-1.084 4.381-1.536 7.685.48 7.823.567.415.26.555.787.312 1.178-.242.39-.776.495-1.191.238-.12-.072-2.727-1.621-6.267-.379-.266.091-.553.046-.783-.096z"
     fill="#65471B" />
  <g
     transform="matrix(0.45238097,0,0,0.45238097,-0.45238097,19.714285)"
     id="g105">
    <path
       id="path82"
       d="m 31,5.718 h -6 v 4 h 4 c 0,0 2,0 2,2 v 12 c 0,2 -2,2 -2,2 h -4 v 4 h 6 c 2.206,0 4,-1.794 4,-4 v -16 c 0,-2.206 -1.794,-4 -4,-4 z"
       fill="#ffac33" />
    <path
       id="path84"
       d="M 27,6 H 3 v 26 c 0,2.209 1.791,4 4,4 h 16 c 2.209,0 4,-1.791 4,-4 z"
       fill="#ffcc4d" />
    <path
       id="path86"
       d="m 8.5,32 c -0.552,0 -1,-0.447 -1,-1 V 15 c 0,-0.552 0.448,-1 1,-1 0.552,0 1,0.448 1,1 v 16 c 0,0.553 -0.448,1 -1,1 z m 6.5,0 c -0.552,0 -1,-0.447 -1,-1 V 15 c 0,-0.552 0.448,-1 1,-1 0.552,0 1,0.448 1,1 v 16 c 0,0.553 -0.448,1 -1,1 z m 6.5,0 c -0.553,0 -1,-0.447 -1,-1 V 15 c 0,-0.552 0.447,-1 1,-1 0.553,0 1,0.448 1,1 v 16 c 0,0.553 -0.447,1 -1,1 z"
       fill="#f4900c" />
    <path
       id="path88"
       d="m 3,5 v 7.445 C 3.59,12.789 4.268,13 5,13 6.674,13 8.104,11.969 8.701,10.509 9.051,10.811 9.502,11 10,11 10.677,11 11.273,10.662 11.635,10.147 12.345,11.258 13.583,12 15,12 16.301,12 17.445,11.369 18.176,10.407 18.54,11.338 19.44,12 20.5,12 c 0.949,0 1.765,-0.535 2.188,-1.314 l 0.147,-0.361 c 0.497,0.271 1.059,0.439 1.665,0.439 0.981,0 1.865,-0.406 2.5,-1.056 V 5 Z"
       fill="#ffac33" />
    <path
       id="path90"
       d="M 24,0 H 4 C 2.343,0 1,1.343 1,3 V 7 C 1,9.209 2.791,11 5,11 6.674,11 8.104,9.969 8.701,8.509 9.051,8.811 9.502,9 10,9 10.677,9 11.273,8.662 11.635,8.147 12.345,9.258 13.583,10 15,10 16.301,10 17.445,9.369 18.176,8.407 18.54,9.338 19.44,10 20.5,10 21.449,10 22.265,9.465 22.688,8.686 23.086,8.881 23.527,9 24,9 25.657,9 27,7.657 27,6 V 3 C 27,1.343 25.657,0 24,0 Z"
       fill="#eeeeee" />
  </g>
  <path
     fill="#f19020"
     d="m 20.112846,35.150099 c 0,0 -1.265,-0.411 -1.429,-1.352 -0.173,-0.972 0.624,-1.167 0.624,-1.167 0,0 -1.041,-0.208 -1.172,-1.376 -0.123,-1.101 0.861,-1.363 0.861,-1.363 0,0 -0.97,-0.4 -1.016,-1.539 -0.038,-0.959 0.995,-1.428 0.995,-1.428 0,0 -5.038,-1.221 -5.556,-1.341 -0.516,-0.12 -1.32,-0.615 -1.069,-1.694 0.249,-1.08 1.204,-1.118 1.697,-1.003 0.494,0.115 6.744,1.566 8.9,2.068 l 1.439,0.334 c 0.54,0.127 0.785,-0.11 0.404,-0.512 -0.508,-0.536 -0.833,-1.129 -0.946,-2.113 -0.119,-1.035 0.232,-2.313 0.433,-2.809 0.374,-0.921 1.005,-1.649 1.734,-1.899 1.137,-0.39 1.945,0.321 1.542,1.561 -0.604,1.854 -0.208,3.375 0.833,4.293 2.448999,2.157 3.587999,3.695 2.829999,6.973 -0.827999,3.575 -4.376999,5.876 -7.951999,5.048 z"
     id="path10" />
</svg>
