<?xml version="1.0" encoding="UTF-8" standalone="no"?>
<svg
   xmlns:dc="http://purl.org/dc/elements/1.1/"
   xmlns:cc="http://creativecommons.org/ns#"
   xmlns:rdf="http://www.w3.org/1999/02/22-rdf-syntax-ns#"
   xmlns:svg="http://www.w3.org/2000/svg"
   xmlns="http://www.w3.org/2000/svg"
   xmlns:sodipodi="http://sodipodi.sourceforge.net/DTD/sodipodi-0.dtd"
   xmlns:inkscape="http://www.inkscape.org/namespaces/inkscape"
   inkscape:version="1.0 (4035a4fb49, 2020-05-01)"
   sodipodi:docname="facing_face.svg"
   id="svg14"
   version="1.1"
   viewBox="0 0 36 36">
  <title
     id="title18">:facing_face:</title>
  <metadata
     id="metadata20">
    <rdf:RDF>
      <cc:Work
         rdf:about="">
        <dc:format>image/svg+xml</dc:format>
        <dc:type
           rdf:resource="http://purl.org/dc/dcmitype/StillImage" />
        <dc:title>:facing_face:</dc:title>
        <cc:license
           rdf:resource="http://creativecommons.org/licenses/by/4.0/" />
        <dc:contributor>
          <cc:Agent>
            <dc:title>Twitter, Inc and other contributors</dc:title>
          </cc:Agent>
        </dc:contributor>
        <dc:date>2020-05-09</dc:date>
        <dc:creator>
          <cc:Agent>
            <dc:title>らりお (@lo48576@mastodon.cardina1.red)</dc:title>
          </cc:Agent>
        </dc:creator>
        <dc:description>Based on :thinking_face: of Twemoji.</dc:description>
      </cc:Work>
      <cc:License
         rdf:about="http://creativecommons.org/licenses/by/4.0/">
        <cc:permits
           rdf:resource="http://creativecommons.org/ns#Reproduction" />
        <cc:permits
           rdf:resource="http://creativecommons.org/ns#Distribution" />
        <cc:requires
           rdf:resource="http://creativecommons.org/ns#Notice" />
        <cc:requires
           rdf:resource="http://creativecommons.org/ns#Attribution" />
        <cc:permits
           rdf:resource="http://creativecommons.org/ns#DerivativeWorks" />
      </cc:License>
    </rdf:RDF>
  </metadata>
  <defs
     id="defs18" />
  <sodipodi:namedview
     inkscape:current-layer="svg14"
     inkscape:window-maximized="0"
     inkscape:window-y="1478"
     inkscape:window-x="1920"
     inkscape:cy="18"
     inkscape:cx="-6.8571428"
     inkscape:zoom="28"
     inkscape:snap-page="true"
     inkscape:bbox-nodes="true"
     inkscape:snap-bbox="true"
     showgrid="false"
     id="namedview16"
     inkscape:window-height="680"
     inkscape:window-width="1916"
     inkscape:pageshadow="2"
     inkscape:pageopacity="0"
     guidetolerance="10"
     gridtolerance="10"
     objecttolerance="10"
     borderopacity="1"
     bordercolor="#666666"
     pagecolor="#ffffff"
     inkscape:document-rotation="0" />
  <circle
     id="circle2"
     r="17"
     cy="17.018"
     cx="18"
     fill="#FFCB4C" />
  <path
     id="path4"
     d="M14.524 21.036c-.145-.116-.258-.274-.312-.464-.134-.46.13-.918.59-1.021 4.528-1.021 7.577 1.363 7.706 1.465.384.306.459.845.173 1.205-.286.358-.828.401-1.211.097-.11-.084-2.523-1.923-6.182-1.098-.274.061-.554-.016-.764-.184z"
     fill="#65471B" />
  <ellipse
     id="ellipse6"
     ry="2.656"
     rx="2.125"
     cy="11.174"
     cx="13.119"
     fill="#65471B" />
  <ellipse
     id="ellipse8"
     ry="2.656"
     rx="2.125"
     cy="12.236"
     cx="24.375"
     fill="#65471B" />
  <path
     id="path12"
     d="M9.296 6.351c-.164-.088-.303-.224-.391-.399-.216-.428-.04-.927.393-1.112 4.266-1.831 7.699-.043 7.843.034.433.231.608.747.391 1.154-.216.405-.74.546-1.173.318-.123-.063-2.832-1.432-6.278.047-.257.109-.547.085-.785-.042zm12.135 3.75c-.156-.098-.286-.243-.362-.424-.187-.442.023-.927.468-1.084 4.381-1.536 7.685.48 7.823.567.415.26.555.787.312 1.178-.242.39-.776.495-1.191.238-.12-.072-2.727-1.621-6.267-.379-.266.091-.553.046-.783-.096z"
     fill="#65471B" />
  <circle
     style="stroke-width:0.393558;fill:#f19020;fill-opacity:1"
     fill="#ffcb4c"
     cx="12.630407"
     cy="29.30842"
     r="6.6904798"
     id="circle2-7" />
  <path
     style="stroke-width:0.393558"
     fill="#65471b"
     d="m 11.2624,30.889734 c -0.05706,-0.04565 -0.101537,-0.107834 -0.12279,-0.18261 -0.05274,-0.181037 0.05116,-0.361286 0.232199,-0.401823 1.78203,-0.401822 2.981987,0.536419 3.032756,0.576562 0.151126,0.120429 0.180643,0.332556 0.06808,0.474237 -0.112557,0.140894 -0.325865,0.157817 -0.476598,0.03817 -0.04329,-0.03306 -0.992946,-0.756811 -2.432974,-0.432126 -0.107834,0.02401 -0.21803,-0.0063 -0.300678,-0.07241 z"
     id="path4-5" />
  <ellipse
     style="stroke-width:0.393558"
     fill="#65471b"
     cx="10.709453"
     cy="27.008469"
     rx="0.83630997"
     ry="1.045289"
     id="ellipse6-3" />
  <ellipse
     style="stroke-width:0.393558"
     fill="#65471b"
     cx="15.139337"
     cy="27.426428"
     rx="0.83630997"
     ry="1.045289"
     id="ellipse8-5" />
  <path
     style="stroke-width:0.393558"
     fill="#65471b"
     d="m 9.2048811,25.110341 c -0.064543,-0.03463 -0.119248,-0.08816 -0.153881,-0.15703 -0.085008,-0.168442 -0.015742,-0.364828 0.1546681,-0.437636 1.6789168,-0.720604 3.0300008,-0.01692 3.0866728,0.01338 0.17041,0.09091 0.239283,0.293988 0.153881,0.454166 -0.08501,0.15939 -0.291233,0.214882 -0.461643,0.125151 -0.04841,-0.02479 -1.114556,-0.563575 -2.4707551,0.0185 -0.1011444,0.0429 -0.2152761,0.03345 -0.3089428,-0.01653 z m 4.7758219,1.475841 c -0.0614,-0.03857 -0.112557,-0.09564 -0.142468,-0.166869 -0.07359,-0.173952 0.0091,-0.364827 0.184185,-0.426616 1.724176,-0.604505 3.024491,0.188908 3.078802,0.223147 0.163326,0.102325 0.218424,0.30973 0.12279,0.463611 -0.09524,0.153487 -0.305401,0.194811 -0.468727,0.09367 -0.04723,-0.02834 -1.073232,-0.637956 -2.466426,-0.149158 -0.104687,0.03581 -0.217638,0.0181 -0.308156,-0.03778 z"
     id="path12-6" />
</svg>
