<?xml version="1.0" encoding="UTF-8" standalone="no"?>
<svg
   xmlns:dc="http://purl.org/dc/elements/1.1/"
   xmlns:cc="http://creativecommons.org/ns#"
   xmlns:rdf="http://www.w3.org/1999/02/22-rdf-syntax-ns#"
   xmlns:svg="http://www.w3.org/2000/svg"
   xmlns="http://www.w3.org/2000/svg"
   xmlns:sodipodi="http://sodipodi.sourceforge.net/DTD/sodipodi-0.dtd"
   xmlns:inkscape="http://www.inkscape.org/namespaces/inkscape"
   viewBox="0 0 36 36"
   version="1.1"
   id="svg14"
   sodipodi:docname="syncing_face.svg"
   inkscape:version="1.0 (4035a4fb49, 2020-05-01)">
  <title
     id="title12">:syncing_face:</title>
  <metadata
     id="metadata20">
    <rdf:RDF>
      <cc:Work
         rdf:about="">
        <dc:format>image/svg+xml</dc:format>
        <dc:type
           rdf:resource="http://purl.org/dc/dcmitype/StillImage" />
        <dc:title>:syncing_face:</dc:title>
        <cc:license
           rdf:resource="http://creativecommons.org/licenses/by/4.0/" />
        <dc:creator>
          <cc:Agent>
            <dc:title>らりお (@lo48576@mastodon.cardina1.red)</dc:title>
          </cc:Agent>
        </dc:creator>
        <dc:description>Based on glyphs for U+1F914 and U+1F504 by Twemoji.</dc:description>
        <dc:contributor>
          <cc:Agent>
            <dc:title>Twitter, Inc and other contributors</dc:title>
          </cc:Agent>
        </dc:contributor>
        <dc:date>2020-05-28</dc:date>
      </cc:Work>
      <cc:License
         rdf:about="http://creativecommons.org/licenses/by/4.0/">
        <cc:permits
           rdf:resource="http://creativecommons.org/ns#Reproduction" />
        <cc:permits
           rdf:resource="http://creativecommons.org/ns#Distribution" />
        <cc:requires
           rdf:resource="http://creativecommons.org/ns#Notice" />
        <cc:requires
           rdf:resource="http://creativecommons.org/ns#Attribution" />
        <cc:permits
           rdf:resource="http://creativecommons.org/ns#DerivativeWorks" />
      </cc:License>
    </rdf:RDF>
  </metadata>
  <defs
     id="defs18" />
  <sodipodi:namedview
     inkscape:snap-page="true"
     inkscape:snap-bbox-edge-midpoints="true"
     inkscape:bbox-nodes="true"
     inkscape:snap-bbox="true"
     inkscape:document-rotation="0"
     pagecolor="#ffffff"
     bordercolor="#666666"
     borderopacity="1"
     objecttolerance="10"
     gridtolerance="10"
     guidetolerance="10"
     inkscape:pageopacity="0"
     inkscape:pageshadow="2"
     inkscape:window-width="1916"
     inkscape:window-height="2101"
     id="namedview16"
     showgrid="false"
     inkscape:zoom="14"
     inkscape:cx="31.995401"
     inkscape:cy="20.511592"
     inkscape:window-x="1920"
     inkscape:window-y="57"
     inkscape:window-maximized="1"
     inkscape:current-layer="svg14" />
  <circle
     fill="#FFCB4C"
     cx="18"
     cy="17.018"
     r="17"
     id="circle2" />
  <path
     fill="#65471B"
     d="M14.524 21.036c-.145-.116-.258-.274-.312-.464-.134-.46.13-.918.59-1.021 4.528-1.021 7.577 1.363 7.706 1.465.384.306.459.845.173 1.205-.286.358-.828.401-1.211.097-.11-.084-2.523-1.923-6.182-1.098-.274.061-.554-.016-.764-.184z"
     id="path4" />
  <ellipse
     fill="#65471B"
     cx="13.119"
     cy="11.174"
     rx="2.125"
     ry="2.656"
     id="ellipse6" />
  <ellipse
     fill="#65471B"
     cx="24.375"
     cy="12.236"
     rx="2.125"
     ry="2.656"
     id="ellipse8" />
  <path
     fill="#65471B"
     d="M9.296 6.351c-.164-.088-.303-.224-.391-.399-.216-.428-.04-.927.393-1.112 4.266-1.831 7.699-.043 7.843.034.433.231.608.747.391 1.154-.216.405-.74.546-1.173.318-.123-.063-2.832-1.432-6.278.047-.257.109-.547.085-.785-.042zm12.135 3.75c-.156-.098-.286-.243-.362-.424-.187-.442.023-.927.468-1.084 4.381-1.536 7.685.48 7.823.567.415.26.555.787.312 1.178-.242.39-.776.495-1.191.238-.12-.072-2.727-1.621-6.267-.379-.266.091-.553.046-.783-.096z"
     id="path12" />
  <g
     transform="matrix(0.40229062,0,0,0.40229062,2.5576101,21.517537)"
     id="g161">
    <path
       fill="#3b88c3"
       d="m 36,32 c 0,2.209 -1.791,4 -4,4 H 4 C 1.791,36 0,34.209 0,32 V 4 C 0,1.791 1.791,0 4,0 h 28 c 2.209,0 4,1.791 4,4 z"
       id="path147" />
    <path
       fill="#ffffff"
       d="m 22.242,22.242 2.829,2.829 C 21.166,28.976 14.834,28.975 10.928,25.07 8.681,22.824 7.734,19.774 8.074,16.845 l -4.037,0.367 c -0.215,3.84 1.128,7.752 4.062,10.687 5.467,5.467 14.333,5.468 19.799,0 l 2.828,2.828 0.849,-9.334 z M 27.899,8.1 C 22.431,2.633 13.568,2.633 8.1,8.1 L 5.272,5.272 4.423,14.606 13.757,13.757 10.928,10.928 c 3.906,-3.905 10.236,-3.905 14.142,0 2.248,2.247 3.194,5.297 2.856,8.226 l 4.036,-0.366 C 32.178,14.947 30.834,11.035 27.899,8.1 Z"
       id="path149" />
  </g>
</svg>
