<?xml version="1.0" encoding="UTF-8" standalone="no"?>
<svg
   inkscape:version="1.2.1 (9c6d41e410, 2022-07-14)"
   sodipodi:docname="thanking_face.svg"
   id="svg14"
   version="1.1"
   viewBox="0 0 36 36"
   xml:space="preserve"
   xmlns:inkscape="http://www.inkscape.org/namespaces/inkscape"
   xmlns:sodipodi="http://sodipodi.sourceforge.net/DTD/sodipodi-0.dtd"
   xmlns="http://www.w3.org/2000/svg"
   xmlns:svg="http://www.w3.org/2000/svg"
   xmlns:rdf="http://www.w3.org/1999/02/22-rdf-syntax-ns#"
   xmlns:cc="http://creativecommons.org/ns#"
   xmlns:dc="http://purl.org/dc/elements/1.1/"><title
     id="title12">:thanking_face:</title><metadata
     id="metadata20"><rdf:RDF><cc:Work
         rdf:about=""><dc:format>image/svg+xml</dc:format><dc:type
           rdf:resource="http://purl.org/dc/dcmitype/StillImage" /><dc:title>:thanking_face:</dc:title><cc:license
           rdf:resource="http://creativecommons.org/licenses/by/4.0/" /><dc:description>Based on glyphs for U+1F914 and U+1F44D by Twemoji.</dc:description><dc:contributor><cc:Agent><dc:title>Twitter, Inc and other contributors</dc:title></cc:Agent></dc:contributor><dc:creator><cc:Agent><dc:title>らりお (@lo48576@mastodon.cardina1.red)</dc:title></cc:Agent></dc:creator><dc:date>2022-09-20</dc:date></cc:Work><cc:License
         rdf:about="http://creativecommons.org/licenses/by/4.0/"><cc:permits
           rdf:resource="http://creativecommons.org/ns#Reproduction" /><cc:permits
           rdf:resource="http://creativecommons.org/ns#Distribution" /><cc:requires
           rdf:resource="http://creativecommons.org/ns#Notice" /><cc:requires
           rdf:resource="http://creativecommons.org/ns#Attribution" /><cc:permits
           rdf:resource="http://creativecommons.org/ns#DerivativeWorks" /></cc:License></rdf:RDF></metadata><defs
     id="defs18" /><sodipodi:namedview
     inkscape:current-layer="svg14"
     inkscape:window-maximized="0"
     inkscape:window-y="3603"
     inkscape:window-x="0"
     inkscape:cy="23.609375"
     inkscape:cx="15.375"
     inkscape:zoom="32"
     showgrid="true"
     id="namedview16"
     inkscape:window-height="679"
     inkscape:window-width="3832"
     inkscape:pageshadow="2"
     inkscape:pageopacity="0"
     guidetolerance="10"
     gridtolerance="10"
     objecttolerance="10"
     borderopacity="1"
     bordercolor="#666666"
     pagecolor="#ffffff"
     inkscape:document-rotation="0"
     inkscape:showpageshadow="2"
     inkscape:pagecheckerboard="0"
     inkscape:deskcolor="#d1d1d1"><inkscape:grid
       type="xygrid"
       id="grid1735" /></sodipodi:namedview><circle
     id="circle2"
     r="17"
     cy="17.018"
     cx="18"
     fill="#FFCB4C" /><path
     id="path4"
     d="m 22.507448,20.781848 c 0.145,0.116 0.258,0.274 0.312,0.464 0.134,0.46 -0.13,0.918 -0.59,1.021 -4.528,1.021 -7.577,-1.363 -7.706,-1.465 -0.384,-0.306 -0.459,-0.845 -0.173,-1.205 0.286,-0.358 0.828,-0.401 1.211,-0.097 0.11,0.084 2.523,1.923 6.182,1.098 0.274,-0.061 0.554,0.016 0.764,0.184 z"
     fill="#65471b" /><ellipse
     id="ellipse6"
     ry="2.656"
     rx="2.125"
     cy="11.174"
     cx="13.119"
     fill="#65471B" /><ellipse
     id="ellipse8"
     ry="2.656"
     rx="2.125"
     cy="12.236"
     cx="24.375"
     fill="#65471B" /><path
     id="path12"
     d="M9.296 6.351c-.164-.088-.303-.224-.391-.399-.216-.428-.04-.927.393-1.112 4.266-1.831 7.699-.043 7.843.034.433.231.608.747.391 1.154-.216.405-.74.546-1.173.318-.123-.063-2.832-1.432-6.278.047-.257.109-.547.085-.785-.042zm12.135 3.75c-.156-.098-.286-.243-.362-.424-.187-.442.023-.927.468-1.084 4.381-1.536 7.685.48 7.823.567.415.26.555.787.312 1.178-.242.39-.776.495-1.191.238-.12-.072-2.727-1.621-6.267-.379-.266.091-.553.046-.783-.096z"
     fill="#65471B" /><path
     fill="#ffdb5e"
     d="m 18.979777,26.865916 c 0,-0.254061 -0.06061,-0.492465 -0.162135,-0.709149 -0.677328,-2.185028 -3.848296,-2.025419 -8.358767,-2.131994 -0.754103,-0.01768 -0.322754,-0.908155 -0.05809,-2.862861 0.172236,-1.271317 -0.647528,-3.223498 -2.0254193,-3.223498 -2.271904,0 -0.08637,1.792067 -2.0951218,6.223744 -1.0733207,2.367872 -3.4725078,1.0415 -3.4725078,3.419979 v 5.414081 c 0,0.925834 0.090917,1.815806 1.3930438,1.962283 C 5.4630049,35.100432 5.1791432,36 7,36 h 9.11388 c 0.928359,0 1.683472,-0.755617 1.683472,-1.683976 0,-0.384881 -0.134859,-0.735414 -0.352554,-1.019276 0.515194,-0.288408 0.868758,-0.832897 0.868758,-1.464262 0,-0.38387 -0.134354,-0.734404 -0.351544,-1.01776 0.516709,-0.287903 0.871284,-0.832897 0.871284,-1.465272 0,-0.459129 -0.185874,-0.875325 -0.485394,-1.179895 0.382355,-0.308612 0.631871,-0.775317 0.631871,-1.303643 z"
     id="path297"
     style="fill:#f19020;stroke-width:0.505092" /></svg>
