<?xml version="1.0" encoding="UTF-8" standalone="no"?>
<svg
   xmlns:dc="http://purl.org/dc/elements/1.1/"
   xmlns:cc="http://creativecommons.org/ns#"
   xmlns:rdf="http://www.w3.org/1999/02/22-rdf-syntax-ns#"
   xmlns:svg="http://www.w3.org/2000/svg"
   xmlns="http://www.w3.org/2000/svg"
   xmlns:sodipodi="http://sodipodi.sourceforge.net/DTD/sodipodi-0.dtd"
   xmlns:inkscape="http://www.inkscape.org/namespaces/inkscape"
   width="100%"
   height="100%"
   viewBox="0 0 36 36"
   version="1.1"
   xml:space="preserve"
   style="fill-rule:evenodd;clip-rule:evenodd;stroke-linejoin:round;stroke-miterlimit:2;"
   id="svg1341"
   sodipodi:docname="thinking_king.svg"
   inkscape:version="0.92.2 5c3e80d, 2017-08-06"><title
     id="title2047">:thinking_king:</title><metadata
     id="metadata1347"><rdf:RDF><cc:Work
         rdf:about=""><dc:format>image/svg+xml</dc:format><dc:type
           rdf:resource="http://purl.org/dc/dcmitype/StillImage" /><dc:title>:thinking_king:</dc:title><cc:license
           rdf:resource="http://creativecommons.org/licenses/by/4.0/" /><dc:date>2020-06-16</dc:date><dc:creator><cc:Agent><dc:title>wass80 (https://twitter.com/wass80)</dc:title></cc:Agent></dc:creator><dc:description>Thin `:thinking_face:` with a crown.</dc:description><dc:contributor><cc:Agent><dc:title>Twitter, Inc and other contributors</dc:title></cc:Agent></dc:contributor></cc:Work><cc:License
         rdf:about="http://creativecommons.org/licenses/by/4.0/"><cc:permits
           rdf:resource="http://creativecommons.org/ns#Reproduction" /><cc:permits
           rdf:resource="http://creativecommons.org/ns#Distribution" /><cc:requires
           rdf:resource="http://creativecommons.org/ns#Notice" /><cc:requires
           rdf:resource="http://creativecommons.org/ns#Attribution" /><cc:permits
           rdf:resource="http://creativecommons.org/ns#DerivativeWorks" /></cc:License></rdf:RDF></metadata><defs
     id="defs1345" /><sodipodi:namedview
     pagecolor="#ffffff"
     bordercolor="#666666"
     borderopacity="1"
     objecttolerance="10"
     gridtolerance="10"
     guidetolerance="10"
     inkscape:pageopacity="0"
     inkscape:pageshadow="2"
     inkscape:window-width="796"
     inkscape:window-height="480"
     id="namedview1343"
     showgrid="false"
     inkscape:zoom="18.404418"
     inkscape:cx="18"
     inkscape:cy="18"
     inkscape:window-x="1191"
     inkscape:window-y="224"
     inkscape:window-maximized="0"
     inkscape:current-layer="svg1341" /><g
     transform="matrix(0.638197,0,0,0.638197,6.51245,12.9971)"
     id="g1303"><circle
       id="circle2"
       cx="18"
       cy="17.018"
       r="17"
       style="fill:rgb(255,203,76);" /><path
       id="path4"
       d="M14.524,21.036C14.379,20.92 14.266,20.762 14.212,20.572C14.078,20.112 14.342,19.654 14.802,19.551C19.33,18.53 22.379,20.914 22.508,21.016C22.892,21.322 22.967,21.861 22.681,22.221C22.395,22.579 21.853,22.622 21.47,22.318C21.36,22.234 18.947,20.395 15.288,21.22C15.014,21.281 14.734,21.204 14.524,21.036Z"
       style="fill:rgb(101,71,27);fill-rule:nonzero;" /><ellipse
       id="ellipse6"
       cx="13.119"
       cy="11.174"
       rx="2.125"
       ry="2.656"
       style="fill:rgb(101,71,27);" /><ellipse
       id="ellipse8"
       cx="24.375"
       cy="12.236"
       rx="2.125"
       ry="2.656"
       style="fill:rgb(101,71,27);" /><path
       id="path10"
       d="M17.276,35.149C17.276,35.149 18.541,34.738 18.705,33.797C18.878,32.825 18.081,32.63 18.081,32.63C18.081,32.63 19.122,32.422 19.253,31.254C19.376,30.153 18.392,29.891 18.392,29.891C18.392,29.891 19.362,29.491 19.408,28.352C19.446,27.393 18.413,26.924 18.413,26.924C18.413,26.924 23.451,25.703 23.969,25.583C24.485,25.463 25.289,24.968 25.038,23.889C24.789,22.809 23.834,22.771 23.341,22.886C22.847,23.001 16.597,24.452 14.441,24.954L13.002,25.288C12.462,25.415 12.217,25.178 12.598,24.776C13.106,24.24 13.431,23.647 13.544,22.663C13.663,21.628 13.312,20.35 13.111,19.854C12.737,18.933 12.106,18.205 11.377,17.955C10.24,17.565 9.432,18.276 9.835,19.516C10.439,21.37 10.043,22.891 9.002,23.809C6.553,25.966 5.414,27.504 6.172,30.782C7,34.357 10.549,36.658 14.124,35.83L17.276,35.149Z"
       style="fill:rgb(241,144,32);fill-rule:nonzero;" /><path
       id="path12"
       d="M9.296,6.351C9.132,6.263 8.993,6.127 8.905,5.952C8.689,5.524 8.865,5.025 9.298,4.84C13.564,3.009 16.997,4.797 17.141,4.874C17.574,5.105 17.749,5.621 17.532,6.028C17.316,6.433 16.792,6.574 16.359,6.346C16.236,6.283 13.527,4.914 10.081,6.393C9.824,6.502 9.534,6.478 9.296,6.351ZM21.431,10.101C21.275,10.003 21.145,9.858 21.069,9.677C20.882,9.235 21.092,8.75 21.537,8.593C25.918,7.057 29.222,9.073 29.36,9.16C29.775,9.42 29.915,9.947 29.672,10.338C29.43,10.728 28.896,10.833 28.481,10.576C28.361,10.504 25.754,8.955 22.214,10.197C21.948,10.288 21.661,10.243 21.431,10.101Z"
       style="fill:rgb(101,71,27);fill-rule:nonzero;" /></g><g
     transform="matrix(0.478567,0,0,0.478567,9.38579,-0.830518)"
     id="g1339"><path
       d="M14.174,17.075L6.75,7.594L3.028,17.075L14.174,17.075Z"
       style="fill:rgb(244,144,12);fill-rule:nonzero;"
       id="path1305" /><path
       d="M17.938,5.534L11.375,17.923L24.5,17.923L17.938,5.534Z"
       style="fill:rgb(244,144,12);fill-rule:nonzero;"
       id="path1307" /><path
       d="M21.826,17.075L29.25,7.594L32.972,17.075L21.826,17.075Z"
       style="fill:rgb(244,144,12);fill-rule:nonzero;"
       id="path1309" /><path
       d="M28.669,15.19L23.887,3.523L18.007,15.191L18,15.194L17.993,15.19L12.113,3.522L7.331,15.19C4.197,10.833 1.28,8.042 1.28,8.042C1.28,8.042 3,20.75 3,33L33,33C33,20.75 34.72,8.042 34.72,8.042C34.72,8.042 31.803,10.833 28.669,15.19Z"
       style="fill:rgb(255,204,77);fill-rule:nonzero;"
       id="path1311" /><circle
       cx="17.957"
       cy="22"
       r="3.688"
       style="fill:rgb(92,145,59);"
       id="circle1313" /><circle
       cx="26.463"
       cy="22"
       r="2.412"
       style="fill:rgb(152,28,235);"
       id="circle1315" /><circle
       cx="32.852"
       cy="22"
       r="1.986"
       style="fill:rgb(221,46,68);"
       id="circle1317" /><circle
       cx="9.45"
       cy="22"
       r="2.412"
       style="fill:rgb(152,28,235);"
       id="circle1319" /><circle
       cx="3.061"
       cy="22"
       r="1.986"
       style="fill:rgb(221,46,68);"
       id="circle1321" /><path
       d="M33,34L3,34C2.448,34 2,33.553 2,33C2,32.447 2.448,32 3,32L33,32C33.553,32 34,32.447 34,33C34,33.553 33.553,34 33,34ZM33,30.514L3,30.514C2.448,30.514 2,30.067 2,29.514C2,28.961 2.448,28.514 3,28.514L33,28.514C33.553,28.514 34,28.961 34,29.514C34,30.067 33.553,30.514 33,30.514Z"
       style="fill:rgb(255,172,51);fill-rule:nonzero;"
       id="path1323" /><circle
       cx="1.447"
       cy="8.042"
       r="1.407"
       style="fill:rgb(255,204,77);"
       id="circle1325" /><circle
       cx="6.75"
       cy="7.594"
       r="1.192"
       style="fill:rgb(244,144,12);"
       id="circle1327" /><circle
       cx="12.113"
       cy="3.523"
       r="1.784"
       style="fill:rgb(255,204,77);"
       id="circle1329" /><circle
       cx="34.553"
       cy="8.042"
       r="1.407"
       style="fill:rgb(255,204,77);"
       id="circle1331" /><circle
       cx="29.25"
       cy="7.594"
       r="1.192"
       style="fill:rgb(244,144,12);"
       id="circle1333" /><circle
       cx="23.887"
       cy="3.523"
       r="1.784"
       style="fill:rgb(255,204,77);"
       id="circle1335" /><circle
       cx="17.938"
       cy="5.534"
       r="1.784"
       style="fill:rgb(244,144,12);"
       id="circle1337" /></g></svg>